<?xml version="1.0" encoding="utf-8"?>
<!-- Generator: Adobe Illustrator 13.0.0, SVG Export Plug-In . SVG Version: 6.00 Build 14948)  -->
<!DOCTYPE svg PUBLIC "-//W3C//DTD SVG 1.1//EN" "http://www.w3.org/Graphics/SVG/1.1/DTD/svg11.dtd">
<svg version="1.1" id="streaming_xA0_Image_1_" xmlns="http://www.w3.org/2000/svg" xmlns:xlink="http://www.w3.org/1999/xlink"
	 x="0px" y="0px" width="800px" height="800px" viewBox="0 0 800 800" enable-background="new 0 0 800 800" xml:space="preserve">
<g>
	<g>
		<path fill-rule="evenodd" clip-rule="evenodd" fill="#3A3A3A" d="M194,29c8.333,0,16.667,0,25,0
			C212.984,30.665,200.016,30.665,194,29z"/>
		<path fill-rule="evenodd" clip-rule="evenodd" fill="#3A3A3A" d="M221,29c22.333,0,44.667,0,67,0
			C267.998,30.667,241.002,30.667,221,29z"/>
		<path fill-rule="evenodd" clip-rule="evenodd" fill="#3A3A3A" d="M291,29c132.001,0,263.999,0,396,0
			C557.331,30.667,420.668,30.667,291,29z"/>
		<path fill-rule="evenodd" clip-rule="evenodd" fill="#454545" d="M67,39c212.336-1.667,431.666-1.667,644,0
			C496.327,39,281.671,39,67,39z"/>
		<path fill-rule="evenodd" clip-rule="evenodd" fill="#EEEEEE" d="M50,39c0,158.999,0,318.002,0,477c-0.333,0-0.667,0-1,0
			C49.667,357.332,47.667,196.004,50,39z"/>
		<path fill-rule="evenodd" clip-rule="evenodd" fill="#EEEEEE" d="M728,201c0-54,0-108,0-162c2.333,160.665,0.333,325.671,1,488
			c-0.333,0-0.667,0-1,0c0-76,0-152,0-228c0-17,0-34,0-51C728,232.333,728,216.667,728,201z"/>
		<path fill-rule="evenodd" clip-rule="evenodd" fill="#2F2F2F" d="M62,41c0.61,0.057,1.184,0.149,1,1c0,160.67,0,321.328,0,482
			c-2.321-119.414-0.342-253.053-1-378C62,111,62,76,62,41z"/>
		<path fill-rule="evenodd" clip-rule="evenodd" fill="#FFFFFF" d="M699,522c-210.659,0-421.336,0-632,0c0-160.336,0-320.665,0-481
			c214.673,0,429.329,0,644,0c0.667,159.005-1.333,320.664,1,478c0,0.333,0,0.667,0,1C711.315,524.315,702.92,520.92,699,522z"/>
		<path fill-rule="evenodd" clip-rule="evenodd" fill="#2F2F2F" d="M715,42c0.057-0.61,0.149-1.184,1-1c0,35,0,70,0,105
			c-0.667,126.001,1.333,254.665-1,379c0-0.333,0-0.667,0-1C715,363.328,715,202.67,715,42z"/>
		<path fill-rule="evenodd" clip-rule="evenodd" fill="#3A3A3A" d="M63,42c0.333,0,0.667,0,1,0c0,34.667,0,69.333,0,104
			c0,125.998,0,252.001,0,378c-0.333,0-0.667,0-1,0C63,363.328,63,202.67,63,42z"/>
		<path fill-rule="evenodd" clip-rule="evenodd" fill="#7E7E7E" d="M64,42c0.333,0,0.667,0,1,0c0,34.667,0,69.333,0,104
			c-0.333,0-0.667,0-1,0C64,111.333,64,76.667,64,42z"/>
		<path fill-rule="evenodd" clip-rule="evenodd" fill="#7E7E7E" d="M713,42c0.333,0,0.667,0,1,0c0,34.667,0,69.333,0,104
			c-0.333,0-0.667,0-1,0C713,111.333,713,76.667,713,42z"/>
		<path fill-rule="evenodd" clip-rule="evenodd" fill="#323232" d="M62,146c0.658,124.947-1.321,258.586,1,378c0.333,0,0.667,0,1,0
			c0,0.333,0,0.667,0,1c0,1,0,2,0,3c-5.494-3.197-3-14.136-3-22C61,388.667,60.172,262.802,62,146z"/>
		<path fill-rule="evenodd" clip-rule="evenodd" fill="#878787" d="M727,201c0.333,0,0.667,0,1,0c0,15.667,0,31.333,0,47
			c-0.333,0-0.667,0-1,0C727,232.333,727,216.667,727,201z"/>
		<path fill-rule="evenodd" clip-rule="evenodd" fill="#989898" d="M727,248c0.333,0,0.667,0,1,0c0,17,0,34,0,51
			c-0.333,0-0.667,0-1,0C727,282,727,265,727,248z"/>
		<path fill-rule="evenodd" clip-rule="evenodd" fill="#878787" d="M727,299c0.333,0,0.667,0,1,0c0,76,0,152,0,228
			c0,0.333,0,0.667,0,1c-0.333,0-0.667,0-1,0c0-0.333,0-0.667,0-1C727,451,727,375,727,299z"/>
		<path fill-rule="evenodd" clip-rule="evenodd" fill="#696969" d="M700,524c0-0.333,0-0.667,0-1c2,0,4,0,6,0c0,0.333,0,0.667,0,1
			C704,524,702,524,700,524z"/>
		<path fill-rule="evenodd" clip-rule="evenodd" fill="#454545" d="M699,525c-159.003-0.667-320.662,1.333-478-1
			c154.999,0,310,0,465,0c4.333,0,8.667,0,13,0C699,524.333,699,524.667,699,525z"/>
		<path fill-rule="evenodd" clip-rule="evenodd" fill="#DEDEDE" d="M728,528c0-0.333,0-0.667,0-1c0.333,0,0.667,0,1,0
			c0,13.333,0,26.667,0,40c-0.333,0-0.667,0-1,0c0-0.333,0-0.667,0-1c0-4.333,0-8.667,0-13c0-5,0-10,0-15
			C728,534.667,728,531.333,728,528z"/>
		<path fill-rule="evenodd" clip-rule="evenodd" fill="#EEEEEE" d="M49,528c0.333,0,0.667,0,1,0c0,46,0,92,0,138
			C47.667,622,49.667,573.667,49,528z"/>
		<path fill-rule="evenodd" clip-rule="evenodd" fill="#333333" d="M68,534c211.673-1.667,430.329-1.667,642,0
			C495.999,534,282,534,68,534z"/>
		<path fill-rule="evenodd" clip-rule="evenodd" fill="#454545" d="M67,535c0.057-0.61,0.149-1.184,1-1c214,0,427.999,0,642,0
			c0.61,0.057,1.184,0.149,1,1c-35.667,0-71.333,0-107,0C425.004,535,245.994,535,67,535z"/>
		<path fill-rule="evenodd" clip-rule="evenodd" fill="#795A62" d="M67,536c0-0.333,0-0.667,0-1c178.994,0,358.004,0,537,0
			c0,0.333,0,0.667,0,1C425.006,536,245.996,536,67,536z"/>
		<path fill-rule="evenodd" clip-rule="evenodd" fill="#3A3A3A" d="M727,535c0,1,0,2,0,3c0,5,0,10,0,15c0,0.667,0,1.333,0,2
			C725.337,550.643,725.337,539.357,727,535z"/>
		<path fill-rule="evenodd" clip-rule="evenodd" fill="#7E7E7E" d="M606,554c5.953-3.785,4.438-14.916-1-18
			c35.672,0.661,73.993-1.326,108,1c-0.499,5.501,1.103,13.103-1,17C676.666,554,641.334,554,606,554z"/>
		<path fill-rule="evenodd" clip-rule="evenodd" fill="#333333" d="M714,553c0-5.667,0-11.333,0-17
			C715.662,539.365,715.662,549.635,714,553z"/>
		<path fill-rule="evenodd" clip-rule="evenodd" fill="#AE0B35" d="M67,537c169.865,0,342.675,0,516,0c6.384,0,26.049-3.264,25,9
			c-0.812,9.504-16.695,7-28,7c-170.193,0-344.537,0-514,0c0-4.333,0-8.667,0-13C65.914,538.581,65.835,537.168,67,537z"/>
		<path fill-rule="evenodd" clip-rule="evenodd" fill="#66484F" d="M67,555c0-0.333,0-0.667,0-1c179.329,0,358.67,0,538,0
			c0,0.333,0,0.667,0,1C425.67,555,246.329,555,67,555z"/>
		<path fill-rule="evenodd" clip-rule="evenodd" fill="#3A3A3A" d="M67,556c0-0.333,0-0.667,0-1c179.329,0,358.67,0,538,0
			c35.333,0,70.667,0,106,0c0,0.333,0,0.667,0,1C496.329,556,281.673,556,67,556z"/>
		<path fill-rule="evenodd" clip-rule="evenodd" fill="#323232" d="M67,556c214.673,0,429.329,0,644,0
			C504.133,557.661,274.908,557.664,67,556z"/>
		<path fill-rule="evenodd" clip-rule="evenodd" fill="#323232" d="M713,564c-213.687-0.663-437.327,1.328-648-1
			C278.687,563.663,502.326,561.672,713,564z"/>
		<path fill-rule="evenodd" clip-rule="evenodd" fill="#3A3A3A" d="M63,566c0-0.333,0-0.667,0-1c0.333,0,0.667,0,1,0
			c0,0.333,0,0.667,0,1c0,32.333,0,64.667,0,97c-0.333,0-0.667,0-1,0C63,630.667,63,598.333,63,566z"/>
		<path fill-rule="evenodd" clip-rule="evenodd" fill="#3A3A3A" d="M714,566c0-0.333,0-0.667,0-1c0.333,0,0.667,0,1,0
			c0,0.333,0,0.667,0,1c0,32.333,0,64.667,0,97c-0.333,0-0.667,0-1,0C714,630.667,714,598.333,714,566z"/>
		<path fill-rule="evenodd" clip-rule="evenodd" fill="#2F2F2F" d="M62,663c0.666-32-1.333-66.666,1-97c0,32.333,0,64.667,0,97
			c0.184,0.851-0.39,0.943-1,1C62,663.667,62,663.333,62,663z"/>
		<path fill-rule="evenodd" clip-rule="evenodd" fill="#B6B6B6" d="M65,567c0-0.333,0-0.667,0-1c216.008,0,431.997,0,648,0
			c0,0.333,0,0.667,0,1c-0.333,0-0.667,0-1,0c-215.336,0-430.666,0-646,0C65.667,567,65.333,567,65,567z"/>
		<path fill-rule="evenodd" clip-rule="evenodd" fill="#2F2F2F" d="M715,566c2.333,30.334,0.334,65,1,97c0,0.333,0,0.667,0,1
			c-0.61-0.057-1.184-0.149-1-1C715,630.667,715,598.333,715,566z"/>
		<path fill-rule="evenodd" clip-rule="evenodd" fill="#B6B6B6" d="M82,651c-1.667-19.669-1.667-46.331,0-66C82,607,82,629,82,651z"
			/>
		<path fill-rule="evenodd" clip-rule="evenodd" fill="#2F2F2F" d="M678,588c0.333,0,0.667,0,1,0c0,8.333,0,16.667,0,25
			c-0.333,0-0.667,0-1,0C678,604.667,678,596.333,678,588z"/>
		<path fill-rule="evenodd" clip-rule="evenodd" fill="#323232" d="M91,599c2.283,6.393,0.371,25.623,1,37
			C89.717,629.607,91.629,610.377,91,599z"/>
		<path fill-rule="evenodd" clip-rule="evenodd" fill="#454545" d="M657,605C653.945,602.804,658.154,598.596,657,605L657,605z"/>
		<path fill-rule="evenodd" clip-rule="evenodd" fill="#454545" d="M656,608C656.71,604.448,654.509,615.456,656,608L656,608z"/>
		<path fill-rule="evenodd" clip-rule="evenodd" fill="#454545" d="M676,615c-5.349-0.651-13.313,1.313-17-1c5.667,0,11.333,0,17,0
			C676,614.333,676,614.667,676,615z"/>
		<path fill-rule="evenodd" clip-rule="evenodd" fill="#B6B6B6" d="M616,619c0-0.333,0-0.667,0-1c21,0,42,0,63,0
			c-2.038,2.295-8.305,0.362-12,1c-1.333,0-2.667,0-4,0C647.333,619,631.667,619,616,619z"/>
		<path fill-rule="evenodd" clip-rule="evenodd" fill="#989898" d="M661,631c0.609-2.391-1.256-7.256,1-8c0,2.667,0,5.333,0,8
			C661.667,631,661.333,631,661,631z"/>
		<path fill-rule="evenodd" clip-rule="evenodd" fill="#B6B6B6" d="M669,624c2.209,0.125,0.425,4.242,1,6c0,0.333,0,0.667,0,1
			C667.764,630.569,669.595,626.071,669,624z"/>
		<path fill-rule="evenodd" clip-rule="evenodd" fill="#B6B6B6" d="M619,631c0-0.333,0-0.667,0-1c3.367,0.633,9.288-1.288,11,1
			C626.333,631,622.667,631,619,631z"/>
		<path fill-rule="evenodd" clip-rule="evenodd" fill="#989898" d="M617,639c0-0.333,0-0.667,0-1c4.667,0,9.333,0,14,0
			C628.305,640.305,621.355,638.355,617,639z"/>
		<path fill-rule="evenodd" clip-rule="evenodd" fill="#C7C7C7" d="M653,639c6.847-1.513,9.513,1.153,8,8
			c-2.236-0.431-0.405-4.929-1-7C657.929,639.405,653.431,641.236,653,639z"/>
		<path fill-rule="evenodd" clip-rule="evenodd" fill="#B6B6B6" d="M669,639c0.333,0,0.667,0,1,0c0,0.333,0,0.667,0,1
			c-0.575,1.758,1.209,5.875-1,6C669,643.667,669,641.333,669,639z"/>
		<path fill-rule="evenodd" clip-rule="evenodd" fill="#B6B6B6" d="M667,649c0.716,1.622-4.716,1.622-4,0
			C664.333,649,665.667,649,667,649z"/>
		<path fill-rule="evenodd" clip-rule="evenodd" fill="#989898" d="M90,655c0.715,1.622-4.715,1.621-4,0
			C87.333,655,88.667,655,90,655z"/>
		<path fill-rule="evenodd" clip-rule="evenodd" fill="#454545" d="M711,666c-212.337,1.667-431.666,1.667-644,0
			C281.673,666,496.329,666,711,666z"/>
		<path fill-rule="evenodd" clip-rule="evenodd" fill="#3A3A3A" d="M194,676c6.016-1.664,18.984-1.664,25,0
			C210.667,676,202.333,676,194,676z"/>
		<path fill-rule="evenodd" clip-rule="evenodd" fill="#3A3A3A" d="M221,676c20.002-1.666,46.998-1.666,67,0
			C265.667,676,243.333,676,221,676z"/>
		<path fill-rule="evenodd" clip-rule="evenodd" fill="#3A3A3A" d="M291,676c129.669-1.667,266.332-1.667,396,0
			C554.999,676,423.001,676,291,676z"/>
		<path fill-rule="evenodd" clip-rule="evenodd" fill="#3A3A3A" d="M726,38c-1.676-1.382-6.639-4.618-5-6
			C724.438,32.229,725.357,34.976,726,38z"/>
		<path fill-rule="evenodd" clip-rule="evenodd" fill="#3A3A3A" d="M721,673c-1.639-1.382,3.324-4.618,5-6
			C725.357,670.024,724.438,672.771,721,673z"/>
		<path fill-rule="evenodd" clip-rule="evenodd" fill="#3A3A3A" d="M53,669c0.311-2.154,6.154,3.689,4,4
			C54.456,672.878,53.122,671.545,53,669z"/>
		<path fill-rule="evenodd" clip-rule="evenodd" fill="#3A3A3A" d="M57,32c2.154,0.311-3.689,6.154-4,4
			C53.122,33.456,54.456,32.122,57,32z"/>
		<path fill-rule="evenodd" clip-rule="evenodd" fill="#323232" d="M62,41c0.354-1.313,1.761-1.573,2-3
			c207.846,1.479,424.637-5.399,636-1c5.102,0.106,12.904-2.152,16,4c-0.851-0.184-0.943,0.39-1,1c-0.334,0-0.667,0-1,0
			c0.182-2.182-0.818-3.182-3-3c-212.334-1.667-431.664-1.667-644,0c-2.182-0.182-3.182,0.818-3,3c-0.333,0-0.667,0-1,0
			C63.184,41.149,62.61,41.057,62,41z"/>
		<path fill-rule="evenodd" clip-rule="evenodd" fill="#333333" d="M192,29c0.667,0,1.333,0,2,0c6.016,1.665,18.984,1.665,25,0
			c0.667,0,1.333,0,2,0c20.002,1.667,46.998,1.667,67,0c1,0,2,0,3,0c129.668,1.667,266.331,1.667,396,0c1,0,2,0,3,0
			c8.333,0,16.667,0,25,0c0.333,0,0.666,0,1,0c2.555,0.112,3.5,1.833,5,3c-1.639,1.382,3.324,4.618,5,6
			c0.667,162.665-1.333,328.004,1,489c0,0.333,0,0.667,0,1c0,2.333,0,4.667,0,7c-1.663,4.357-1.663,15.643,0,20
			c0,3.667,0,7.333,0,11c-2.333,31.667-0.334,67.666-1,101c-1.676,1.382-6.639,4.618-5,6c-1.5,1.167-2.445,2.889-5,3
			c-0.333,0-0.667,0-1,0c-8.333,0-16.667,0-25,0c-1,0-2,0-3,0c-129.668-1.667-266.331-1.667-396,0c-1,0-2,0-3,0
			c-20.002-1.666-46.998-1.666-67,0c-0.667,0-1.333,0-2,0c-6.016-1.664-18.984-1.664-25,0c-0.667,0-1.333,0-2,0
			c-41.667-2.333-87.667-0.334-131-1c-1.862-0.138-3.342-0.658-4-2c2.154-0.311-3.689-6.154-4-4c-0.973-0.027-0.776-1.225-1-2
			c0-46.333,0-92.667,0-139c0-4,0-8,0-12c0-159.335,0-318.663,0-478c-0.163-1.163,0.221-1.779,1-2c0.311,2.154,6.154-3.689,4-4
			c0.658-1.342,2.138-1.862,4-2C104.333,29.333,150.333,31.333,192,29z M699,525c5.186-0.481,12.41,1.077,16-1c0,0.333,0,0.667,0,1
			c3.184,2.486,2-32.642,2-45c0-110.983,0.817-230.336-1-334c0-35,0-70,0-105c-3.096-6.152-10.898-3.894-16-4
			c-211.363-4.399-428.154,2.479-636,1c-0.239,1.427-1.646,1.687-2,3c0,35,0,70,0,105c-1.828,116.802-1,242.667-1,360
			c0,7.864-2.494,18.803,3,22c0-1,0-2,0-3c51.333-0.666,105.333,1.333,155-1c0.667,0,1.333,0,2,0
			C378.338,526.333,539.997,524.333,699,525z M714,554c3.202,0.27,3.458-19.272-1-21c-213.662-1.666-434.334-1.666-648,0
			c-4.913,3.087-2.416,13.585-3,21c3.997,2.573-1.625-13.573,2-17c0.943,5.39-2.116,14.782,2,17c0.333,0,0.667,0,1,0
			c0,0.333,0,0.667,0,1s0,0.667,0,1c207.908,1.664,437.133,1.661,644,0c0-0.333,0-0.667,0-1
			C712.278,554.945,712.385,553.718,714,554z M714,565c-216.662,0-433.335,0-650,0c-0.333,0-0.667,0-1,0
			c-3.977,28.357-2.017,67.981-1,98c0,0.333,0,0.667,0,1s0,0.667,0,1c1.44,0.56,2.44,1.56,3,3c202.654,0,412.156,0,614,0
			c13.386,0,29.058,3.049,37-4c0-0.333,0-0.667,0-1c1.017-30.019,2.977-69.643-1-98C714.667,565,714.333,565,714,565z M65,563
			c210.673,2.328,434.313,0.337,648,1C502.326,561.672,278.687,563.663,65,563z"/>
		<path fill-rule="evenodd" clip-rule="evenodd" fill="#323232" d="M716,146c1.817,103.664,1,223.017,1,334
			c0,12.358,1.184,47.486-2,45C717.333,400.665,715.333,272.001,716,146z"/>
		<path fill-rule="evenodd" clip-rule="evenodd" fill="#EEEEEE" d="M66,40c215.334,0,430.664,0,646,0c0,159.669,0,319.328,0,479
			c-2.333-157.336-0.333-318.995-1-478c-214.671,0-429.327,0-644,0c0,160.335,0,320.664,0,481c210.664,0,421.341,0,632,0
			c0,0.333,0,0.667,0,1c-4.333,0-8.667,0-13,0c-206.666,0-413.333,0-620,0C66,362.003,66,200.996,66,40z"/>
		<path fill-rule="evenodd" clip-rule="evenodd" fill="#3A3A3A" d="M706,524c2.391-0.609,7.256,1.255,8-1c0-0.333,0-0.667,0-1
			c0-125.333,0-250.667,0-376c0-34.667,0-69.333,0-104c0.333,0,0.666,0,1,0c0,160.67,0,321.328,0,482c-3.59,2.077-10.814,0.519-16,1
			c0-0.333,0-0.667,0-1c0.333,0,0.667,0,1,0C702,524,704,524,706,524z"/>
		<path fill-rule="evenodd" clip-rule="evenodd" fill="#323232" d="M711,535c0.184-0.851-0.39-0.943-1-1
			c-211.671-1.667-430.327-1.667-642,0c-0.851-0.184-0.943,0.39-1,1c-1.313,0.354-1.573,1.761-3,2c-3.625,3.427,1.997,19.573-2,17
			c0.584-7.415-1.913-17.913,3-21c213.666-1.666,434.338-1.666,648,0c4.458,1.728,4.202,21.27,1,21c0-0.333,0-0.667,0-1
			c1.662-3.365,1.662-13.635,0-17c-0.81-0.189-0.997-1.003-2-1C711.667,535,711.333,535,711,535z"/>
		<path fill-rule="evenodd" clip-rule="evenodd" fill="#66484F" d="M64,537c1.427-0.239,1.687-1.646,3-2c0,0.333,0,0.667,0,1
			c-3.665,2.255-2.156,14.164-1,18C61.884,551.782,64.943,542.39,64,537z"/>
		<path fill-rule="evenodd" clip-rule="evenodd" fill="#696969" d="M604,536c0-0.333,0-0.667,0-1c35.667,0,71.333,0,107,0
			c0.333,0,0.667,0,1,0c-0.003,1.003,0.81,1.189,1,2c-34.007-2.326-72.328-0.339-108-1C604.667,536,604.333,536,604,536z"/>
		<path fill-rule="evenodd" clip-rule="evenodd" fill="#A12142" d="M66,554c-1.156-3.836-2.665-15.745,1-18
			c178.996,0,358.006,0,537,0c5.438,3.084,6.953,14.215,1,18c-179.33,0-358.671,0-538,0C66.667,554,66.333,554,66,554z M66,540
			c0,4.333,0,8.667,0,13c169.463,0,343.807,0,514,0c11.305,0,27.188,2.504,28-7c1.049-12.264-18.616-9-25-9
			c-173.325,0-346.135,0-516,0C65.835,537.168,65.914,538.581,66,540z"/>
		<path fill-rule="evenodd" clip-rule="evenodd" fill="#5A5A5A" d="M714,536c0,5.667,0,11.333,0,17c0,0.333,0,0.667,0,1
			c-1.615-0.282-1.722,0.945-3,1c-35.333,0-70.667,0-106,0c0-0.333,0-0.667,0-1c0.333,0,0.667,0,1,0c35.334,0,70.666,0,106,0
			c2.103-3.897,0.501-11.499,1-17c-0.19-0.811-1.003-0.997-1-2C713.003,534.997,713.19,535.811,714,536z"/>
		<path fill-rule="evenodd" clip-rule="evenodd" fill="#8A646E" d="M605,554c5.953-3.785,4.438-14.916-1-18c0.333,0,0.667,0,1,0
			c5.438,3.084,6.953,14.215,1,18C605.667,554,605.333,554,605,554z"/>
		<path fill-rule="evenodd" clip-rule="evenodd" fill="#323232" d="M62,663c-1.017-30.019-2.977-69.643,1-98c0,0.333,0,0.667,0,1
			C60.667,596.334,62.666,631,62,663z"/>
		<path fill-rule="evenodd" clip-rule="evenodd" fill="#323232" d="M62,664c0.61-0.057,1.184-0.149,1-1c0.333,0,0.667,0,1,0
			c-0.163,1.163,0.221,1.779,1,2c0.333,0,0.667,0,1,0c-0.184,0.851,0.39,0.943,1,1c212.334,1.667,431.663,1.667,644,0
			c0.851,0.184,0.943-0.39,1-1c0.333,0,0.667,0,1,0c0.973-0.027,0.776-1.225,1-2c0.333,0,0.667,0,1,0c-0.184,0.851,0.39,0.943,1,1
			c-7.942,7.049-23.614,4-37,4c-201.844,0-411.346,0-614,0c-0.56-1.44-1.56-2.44-3-3C62,664.667,62,664.333,62,664z"/>
		<path fill-rule="evenodd" clip-rule="evenodd" fill="#323232" d="M715,566c0-0.333,0-0.667,0-1c3.977,28.357,2.017,67.981,1,98
			C715.334,631,717.333,596.334,715,566z"/>
		<path fill-rule="evenodd" clip-rule="evenodd" fill="#C7C7C7" d="M65,665c0-32.667,0-65.333,0-98c0.333,0,0.667,0,1,0
			c0,32,0,64,0,96c191.951,1.823,406.02,1,606,1c9.195,0,37.964,2.036,40,0c2.354-2.354,0-20.563,0-25c0-23.474,0-51.933,0-72
			c0.333,0,0.667,0,1,0c0,32.667,0,65.333,0,98c-0.333,0-0.667,0-1,0c-215.334,0-430.664,0-646,0C65.667,665,65.333,665,65,665z"/>
		<path fill-rule="evenodd" clip-rule="evenodd" fill="#CCCCCC" d="M66,567c215.334,0,430.664,0,646,0c0,20.067,0,48.526,0,72
			c0,4.437,2.354,22.646,0,25c-2.036,2.036-30.805,0-40,0c-199.98,0-414.049,0.823-606-1C66,631,66,599,66,567z M85,581
			c-1.464,0.869-3.169,1.497-3,4c-1.667,19.669-1.667,46.331,0,66c0.057,0.61,0.149,1.184,1,1c0.211,1.122,1.11,1.557,2,2
			c0.057,0.61,0.149,1.184,1,1c-0.715,1.621,4.715,1.622,4,0c0.61-0.057,1.184-0.149,1-1c5.828-4.172,12.621-7.379,18-12
			c1.72,0.054,2.563-0.77,3-2c7.073-5.927,16.412-9.588,23-16c0.333,0,0.667,0,1,0c0.294-2.039,2.706-1.961,3-4
			c2.816-3.861-1.034-9.599-5-10c-10.599-7.068-21.282-14.052-32-21c-0.057-0.61-0.149-1.184-1-1c-2.648-2.352-5.688-4.312-9-6
			c0-0.333,0-0.667,0-1c-1.065-0.717-4.606-3.904-6-1C85.39,580.057,84.816,580.149,85,581z M614,618c-3.278-2.535-1.526,2.108,2,1
			c15.667,0,31.333,0,47,0c-2.227,2.44-3.664,5.67-3,11c-4.385-0.052-9.366-0.699-10,3c-0.537,3.537,0.848,5.152,3,6
			c0.431,2.236,4.929,0.405,7,1c0.595,2.071-1.236,6.569,1,7c0.333,0,0.667,0,1,0c0.224,0.776,0.027,1.973,1,2
			c-0.716,1.622,4.716,1.622,4,0c0.61-0.057,1.184-0.149,1-1c0.779-0.221,1.163-0.837,1-2c2.209-0.125,0.425-4.242,1-6
			c13.653,3.444,14.063-13.562,0-10c-0.575-1.758,1.209-5.875-1-6c-0.224-0.775-0.027-1.973-1-2c-0.61-0.057-1.184-0.149-1-1
			c0-0.667,0-1.333,0-2c3.695-0.638,9.962,1.295,12-1c0.333,0,0.667,0,1,0c3.848-7.493,2.109-25.882,1-35
			c0.716-1.622-4.716-1.622-4,0c-0.775,0.224-1.973,0.027-2,1c-2.555,0.445-4.598,1.402-6,3c-1.912,0.421-4.305,0.362-4,3
			c-0.667,0-1.333,0-2,0c-1.78,0.553-4.152,0.514-5,2c-0.132,2.991-8.234,0.647-5,4c-0.333,0-0.667,0-1,0
			c-2.408,1.592-7.27,0.73-8,4c-8.135,2.927-13.401,5.976-22,10c-0.775,0.224-1.973,0.027-2,1c-2.333,0.334-4.309,1.025-5,3
			c-2.461-1.555-2.94,3.396-1,3C614,617.333,614,617.667,614,618z M619,630c-3.349-0.937-6.692,3.201-4,5c0,0.333,0,0.667,0,1
			c0.113,1.22,0.299,2.368,2,2c0,0.333,0,0.667,0,1c5.3,1.611,19.172,3.188,18-5c-0.221-0.779-0.838-1.163-2-1
			c-0.61-0.057-1.184-0.149-1-1c-0.221-0.779-0.838-1.163-2-1C628.288,628.712,622.367,630.633,619,630z"/>
		<path fill-rule="evenodd" clip-rule="evenodd" fill="#B6B6B6" d="M134,610c3.966,0.401,7.816,6.139,5,10
			c-0.547-1.453,1.168-5.168-1-5c0.184-0.851-0.39-0.943-1-1C136.706,611.961,134.294,612.039,134,610z"/>
		<path fill-rule="evenodd" clip-rule="evenodd" fill="#7E7E7E" d="M82,585c-0.169-2.503,1.536-3.131,3-4
			c-0.521,1.479-1.479,2.521-2,4C82.667,585,82.333,585,82,585z"/>
		<path fill-rule="evenodd" clip-rule="evenodd" fill="#C7C7C7" d="M616,619c-3.526,1.108-5.278-3.535-2-1c0.667,0,1.333,0,2,0
			C616,618.333,616,618.667,616,619z"/>
		<path fill-rule="evenodd" clip-rule="evenodd" fill="#C7C7C7" d="M650,633c0.634-3.699,5.615-3.052,10-3
			c-0.664-5.33,0.773-8.56,3-11c1.333,0,2.667,0,4,0c0,0.667,0,1.333,0,2c-1,0-2,0-3,0c-0.891,0.443-1.789,0.878-2,2
			c-2.256,0.744-0.391,5.609-1,8c-2.391,0.609-7.256-1.255-8,1c-0.851-0.184-0.943,0.39-1,1c-0.333,0-0.667,0-1,0
			S650.333,633,650,633z"/>
		<path fill-rule="evenodd" clip-rule="evenodd" fill="#C7C7C7" d="M670,630c14.063-3.562,13.653,13.444,0,10c0-0.333,0-0.667,0-1
			c2.071-0.595,6.569,1.236,7-1c2.187-0.147,2.147-2.52,2-5c-0.351-3.315-5.764-1.569-9-2C670,630.667,670,630.333,670,630z"/>
		<path fill-rule="evenodd" clip-rule="evenodd" fill="#696969" d="M677,583c-0.716-1.622,4.716-1.622,4,0
			c-0.662,11.004,1.328,24.661-1,34c0-0.333,0-0.667,0-1c0-11,0-22,0-33C679,583,678,583,677,583z"/>
		<path fill-rule="evenodd" clip-rule="evenodd" fill="#333333" d="M102,589c-0.105,0.094-0.952-0.117-1,0
			c-2.451,5.936,35.241,19.387,35,29c-0.141,5.62-19.414,16.608-23,19c-10.051,6.702-16.173,10.091-26,16
			c-3.882-19.183-2.067-49.18-1-70c7.405-0.818,8.561,7.949,15,5C101.851,587.816,101.943,588.39,102,589z M92,636
			c-0.629-11.377,1.283-30.607-1-37C91.629,610.377,89.717,629.607,92,636z M96,599c-5.071-0.056-3,10.751-3,18
			c0,9.111-1.764,22.009,3,19c1.975,2.441,24.602-14.266,24-16c0-0.333,0-0.667,0-1c0.61-0.057,1.184-0.149,1-1
			C121.023,611.423,102.946,601.789,96,599z"/>
		<path fill-rule="evenodd" clip-rule="evenodd" fill="#323232" d="M101,588c-6.439,2.949-7.595-5.818-15-5
			c-1.067,20.82-2.882,50.817,1,70c9.827-5.909,15.949-9.298,26-16c3.586-2.392,22.859-13.38,23-19c0.241-9.613-37.451-23.064-35-29
			c0.048-0.117,0.895,0.094,1,0c10.718,6.948,21.401,13.932,32,21c0.294,2.039,2.706,1.961,3,4c0,2,0,4,0,6
			c0.729,2.729-1.987,2.013-2,4c-6.588,6.412-15.927,10.073-23,16c-1.71-0.044-2.59,0.743-3,2c-5.379,4.621-12.172,7.828-18,12
			c-2,0-4,0-6,0c-0.89-0.443-1.789-0.878-2-2c0-22.333,0-44.667,0-67c0.521-1.479,1.479-2.521,2-4c1.333,0,2.667,0,4,0
			c0.804,0.529,1.624,1.043,3,1C95.312,583.688,98.352,585.648,101,588z"/>
		<path fill-rule="evenodd" clip-rule="evenodd" fill="#3A3A3A" d="M677,583c1,0,2,0,3,0c0,11,0,22,0,33c-0.333,0-0.667,0-1,0
			c0-1,0-2,0-3c0-8.333,0-16.667,0-25c0.776-3.443-0.557-4.776-4-4C675.027,583.027,676.225,583.224,677,583z"/>
		<path fill-rule="evenodd" clip-rule="evenodd" fill="#B6B6B6" d="M680,617c2.328-9.339,0.338-22.996,1-34
			c1.109,9.118,2.848,27.507-1,35C680,617.667,680,617.333,680,617z"/>
		<path fill-rule="evenodd" clip-rule="evenodd" fill="#3A3A3A" d="M675,587c0.111-2.448,3.306-0.212,3,1c0,8.333,0,16.667,0,25
			c-0.189,0.81-1.003,0.997-1,2c-0.333,0-0.667,0-1,0c0-0.333,0-0.667,0-1C677.063,607.589,678.91,591.768,675,587z"/>
		<path fill-rule="evenodd" clip-rule="evenodd" fill="#989898" d="M672,589c0.775-0.224,1.973-0.027,2-1
			c1.162-0.163,1.779,0.221,2,1c-1.794-0.127-2.109,1.225-4,1C672,589.667,672,589.333,672,589z"/>
		<path fill-rule="evenodd" clip-rule="evenodd" fill="#323232" d="M669,587c-0.129,1.796,0.993,2.34,3,2c0,0.333,0,0.667,0,1
			c-1.615-0.282-1.722,0.945-3,1c-1.615-0.282-1.722,0.945-3,1c-0.189-0.81-1.003-0.997-1-2
			C664.695,587.362,667.088,587.421,669,587z"/>
		<path fill-rule="evenodd" clip-rule="evenodd" fill="#333333" d="M659,595c-0.891,0.443-1.789,0.878-2,2c-0.667,0-1.333,0-2,0
			c-0.027-0.973-1.225-0.776-2-1c-3.234-3.353,4.868-1.009,5-4c2.48,0.147,4.853,0.187,5-2c0.667,0,1.333,0,2,0
			c-0.003,1.003,0.811,1.19,1,2c-1.496,1.171-4.09,1.243-5,3C660.333,595,659.667,595,659,595z"/>
		<path fill-rule="evenodd" clip-rule="evenodd" fill="#454545" d="M655,597c0.667,0,1.333,0,2,0c0.211-1.122,1.109-1.557,2-2
			c0,0.333,0,0.667,0,1c-0.851-0.184-0.943,0.39-1,1c-0.973,0.027-0.776,1.224-1,2c-0.811-0.189-0.997-1.003-2-1
			C655,597.667,655,597.333,655,597z"/>
		<path fill-rule="evenodd" clip-rule="evenodd" fill="#323232" d="M653,596c0.775,0.224,1.973,0.027,2,1c0,0.333,0,0.667,0,1
			c-2.409-0.409-2.174,1.826-5,1c0.354-1.313,1.761-1.573,2-3C652.333,596,652.667,596,653,596z"/>
		<path fill-rule="evenodd" clip-rule="evenodd" fill="#333333" d="M652,596c-0.239,1.427-1.646,1.687-2,3
			c-0.102,2.565-3.727,1.607-5,3c1.117-1.23,0.871-2.054-1-2C644.73,596.73,649.592,597.592,652,596z"/>
		<path fill-rule="evenodd" clip-rule="evenodd" fill="#5A5A5A" d="M655,598c1.003-0.003,1.189,0.811,2,1
			c0.224-0.776,0.027-1.973,1-2c0,5.333,0,10.667,0,16c0,0.333,0,0.667,0,1c-0.667,0-1.333,0-2,0s-1.333,0-2,0c0-0.333,0-0.667,0-1
			c2.305-2.695,0.355-9.645,1-14c-4.537,0.463-5.93,4.07-11,4c0.057-0.61,0.149-1.184,1-1c1.273-1.393,4.898-0.435,5-3
			C652.826,599.826,652.591,597.591,655,598z M657,605C658.154,598.596,653.945,602.804,657,605L657,605z M656,608
			C654.509,615.456,656.71,604.448,656,608L656,608z"/>
		<path fill-rule="evenodd" clip-rule="evenodd" fill="#323232" d="M96,635c2.133-1.2,5.447-1.22,6-4c4.74-2.594,9.848-4.818,13-9
			c1.314-1.02,3.686-0.98,5-2c0.602,1.734-22.025,18.441-24,16C96,635.667,96,635.333,96,635z"/>
		<path fill-rule="evenodd" clip-rule="evenodd" fill="#323232" d="M96,599c6.946,2.789,25.023,12.423,25,19
			c-0.211-1.122-1.11-1.557-2-2c-2.648-2.352-5.688-4.312-9-6c-3.152-4.182-8.26-6.406-13-9c-0.057-0.61-0.149-1.184-1-1
			C96,599.667,96,599.333,96,599z"/>
		<path fill-rule="evenodd" clip-rule="evenodd" fill="#5A5A5A" d="M97,601c4.74,2.594,9.848,4.818,13,9
			c-5.062-1.938-8.021-5.979-13-8C97,601.667,97,601.333,97,601z"/>
		<path fill-rule="evenodd" clip-rule="evenodd" fill="#7E7E7E" d="M110,610c3.312,1.688,6.352,3.648,9,6
			c2.728,1.683-3.538,5.107,1,3c0,0.333,0,0.667,0,1c-1.314,1.02-3.686,0.98-5,2c-4.827,2.506-9.254,5.413-13,9
			c-0.553,2.78-3.867,2.8-6,4c-0.667,0-1.333,0-2,0c1.286-11.047-2.603-27.27,2-35c0.851-0.184,0.943,0.39,1,1c0,0.333,0,0.667,0,1
			C101.979,604.021,104.938,608.062,110,610z"/>
		<path fill-rule="evenodd" clip-rule="evenodd" fill="#696969" d="M119,616c0.89,0.443,1.789,0.878,2,2c0.184,0.851-0.39,0.943-1,1
			C115.462,621.107,121.728,617.683,119,616z"/>
		<path fill-rule="evenodd" clip-rule="evenodd" fill="#323232" d="M627,611c-1.161-0.839-2.681-1.319-5-1
			c8.599-4.024,13.865-7.073,22-10c1.871-0.054,2.117,0.77,1,2c-0.851-0.184-0.943,0.39-1,1c-0.851-0.184-0.943,0.39-1,1
			c-2.483-0.15-4.15,0.517-5,2c-3.104,1.562-6.366,2.967-9,5C628.333,611,627.667,611,627,611z"/>
		<path fill-rule="evenodd" clip-rule="evenodd" fill="#3A3A3A" d="M624,615c-1.434-1.464-0.767-3.17,2-3
			c1.704,4.451,19.729,0.823,28,2c0.667,0,1.333,0,2,0C647.327,616.327,634.338,614.338,624,615z"/>
		<path fill-rule="evenodd" clip-rule="evenodd" fill="#454545" d="M614,617c-0.043-1.377,0.471-2.195,1-3c0.333,0,0.667,0,1,0
			c-3.191,3.485,5.184,1.467,8,2c17.667,0,35.333,0,53,0c0.667,0,1.333,0,2,0c0.333,0,0.667,0,1,0c0,0.333,0,0.667,0,1
			C658,617,636,617,614,617z"/>
		<path fill-rule="evenodd" clip-rule="evenodd" fill="#696969" d="M626,612c0.61-0.057,1.184-0.149,1-1c0.667,0,1.333,0,2,0
			c0.779,4.409,17.675,0.854,25,2c0,0.333,0,0.667,0,1C645.729,612.823,627.704,616.451,626,612z"/>
		<path fill-rule="evenodd" clip-rule="evenodd" fill="#878787" d="M614,617c-1.94,0.396-1.461-4.555,1-3
			C614.471,614.805,613.957,615.623,614,617z"/>
		<path fill-rule="evenodd" clip-rule="evenodd" fill="#5A5A5A" d="M662,623c0.211-1.122,1.109-1.557,2-2
			c0.003,1.003-0.811,1.189-1,2c-0.619,2.714,1.27,7.937-1,9c0-0.333,0-0.667,0-1C662,628.333,662,625.667,662,623z"/>
		<path fill-rule="evenodd" clip-rule="evenodd" fill="#454545" d="M664,621c1,0,2,0,3,0c-0.184,0.851,0.39,0.943,1,1c0,3,0,6,0,9
			c-2.27-1.063-0.381-6.286-1-9c-2.09-0.424-2.647,0.686-4,1C663.189,622.189,664.003,622.003,664,621z"/>
		<path fill-rule="evenodd" clip-rule="evenodd" fill="#5A5A5A" d="M102,631c3.746-3.587,8.173-6.494,13-9
			C111.848,626.182,106.74,628.406,102,631z"/>
		<path fill-rule="evenodd" clip-rule="evenodd" fill="#333333" d="M663,623c1.353-0.314,1.91-1.424,4-1c0.619,2.714-1.27,7.937,1,9
			c0.057,0.61,0.149,1.184,1,1c0.76,2.907,8.24-0.907,9,2c1.847,6.181-7.952,0.715-9,4c-0.61,0.057-1.184,0.149-1,1
			c-2.27,1.063-0.381,6.286-1,9c-0.333,0-0.667,0-1,0c-5.338,1.338-2.142-5.858-3-9c0-0.333,0-0.667,0-1
			c-1.893-1.774-6.604-0.729-10-1c-0.333,0-0.667,0-1,0c0-1,0-2,0-3c1.266-2.401,7.885,0.552,9-2c0.333,0,0.667,0,1,0
			C664.27,630.937,662.381,625.714,663,623z"/>
		<path fill-rule="evenodd" clip-rule="evenodd" fill="#454545" d="M653,632c2.667,0,5.333,0,8,0c-1.115,2.552-7.734-0.401-9,2
			c0-0.333,0-0.667,0-1C652.057,632.39,652.149,631.816,653,632z"/>
		<path fill-rule="evenodd" clip-rule="evenodd" fill="#7E7E7E" d="M669,624c0.595,2.071-1.236,6.569,1,7c0,0.333,0,0.667,0,1
			c-0.333,0-0.667,0-1,0c-0.851,0.184-0.943-0.39-1-1c0-3,0-6,0-9C668.973,622.027,668.776,623.225,669,624z"/>
		<path fill-rule="evenodd" clip-rule="evenodd" fill="#C7C7C7" d="M615,635c-2.692-1.799,0.651-5.937,4-5c0,0.333,0,0.667,0,1
			c-2.279-0.279-3.759,0.241-4,2C615,633.667,615,634.333,615,635z"/>
		<path fill-rule="evenodd" clip-rule="evenodd" fill="#C7C7C7" d="M633,633c1.162-0.163,1.779,0.221,2,1
			c1.172,8.188-12.7,6.611-18,5c4.355-0.645,11.305,1.305,14-1C633.187,637.853,633.147,635.48,633,633z"/>
		<path fill-rule="evenodd" clip-rule="evenodd" fill="#878787" d="M615,633c0.241-1.759,1.721-2.279,4-2c3.667,0,7.333,0,11,0
			c1.162-0.163,1.779,0.221,2,1c-5,0-10,0-15,0C615.997,631.997,615.81,632.811,615,633z"/>
		<path fill-rule="evenodd" clip-rule="evenodd" fill="#878787" d="M670,631c3.236,0.431,8.649-1.315,9,2
			c-1.659-1.675-5.871-0.796-9-1C670,631.667,670,631.333,670,631z"/>
		<path fill-rule="evenodd" clip-rule="evenodd" fill="#5A5A5A" d="M615,633c0.81-0.189,0.997-1.003,2-1c0,0.333,0,0.667,0,1
			c-1.172,0.161-0.844,1.823-1,3c-0.333,0-0.667,0-1,0c0-0.333,0-0.667,0-1C615,634.333,615,633.667,615,633z"/>
		<path fill-rule="evenodd" clip-rule="evenodd" fill="#454545" d="M617,632c5,0,10,0,15,0c-0.184,0.851,0.39,0.943,1,1
			c0.147,2.48,0.187,4.853-2,5c-4.667,0-9.333,0-14,0c-1.701,0.368-1.887-0.78-2-2c0.333,0,0.667,0,1,0
			c2.851,1.147,14.759,2.786,16-1c-1.279-4.388-10.464-0.869-15-2C617,632.667,617,632.333,617,632z"/>
		<path fill-rule="evenodd" clip-rule="evenodd" fill="#454545" d="M670,632c3.129,0.204,7.341-0.675,9,1
			c0.147,2.48,0.187,4.853-2,5c-2.667,0-5.333,0-8,0c1.048-3.285,10.847,2.181,9-4c-0.76-2.907-8.24,0.907-9-2
			C669.333,632,669.667,632,670,632z"/>
		<path fill-rule="evenodd" clip-rule="evenodd" fill="#B6B6B6" d="M650,633c0.333,0,0.667,0,1,0c0.083,1.583-0.48,3.814,1,4
			c0.333,0,0.667,0,1,0c0,0.333,0,0.667,0,1s0,0.667,0,1C650.848,638.152,649.463,636.537,650,633z"/>
		<path fill-rule="evenodd" clip-rule="evenodd" fill="#454545" d="M653,637c3.396,0.271,8.107-0.774,10,1c0,0.333,0,0.667,0,1
			c-0.333,0-0.667,0-1,0c-1.063-2.27-6.286-0.381-9-1C653,637.667,653,637.333,653,637z"/>
		<path fill-rule="evenodd" clip-rule="evenodd" fill="#989898" d="M653,639c0-0.333,0-0.667,0-1c2.714,0.619,7.937-1.27,9,1
			c0,2.667,0,5.333,0,8c-0.333,0-0.667,0-1,0C662.513,640.153,659.847,637.487,653,639z"/>
		<path fill-rule="evenodd" clip-rule="evenodd" fill="#696969" d="M63,29c206.998-2.333,418.336-0.333,627-1c0,0.333,0,0.667,0,1
			c-1,0-2,0-3,0c-132.001,0-263.999,0-396,0c-1,0-2,0-3,0c-22.333,0-44.667,0-67,0c-0.667,0-1.333,0-2,0c-8.333,0-16.667,0-25,0
			c-0.667,0-1.333,0-2,0C149,29,106,29,63,29z"/>
		<path fill-rule="evenodd" clip-rule="evenodd" fill="#5A5A5A" d="M690,28c8.008,0.659,18.657-1.324,25,1c-8.333,0-16.667,0-25,0
			C690,28.667,690,28.333,690,28z"/>
		<path fill-rule="evenodd" clip-rule="evenodd" fill="#FFFFFF" d="M1,0c266.338,0,532.654,0,799,0c0,266.674,0,533.321,0,800
			c-266.674,0-533.321,0-800,0C0,534.341,0,268.655,0,3C-0.086,1.581-0.165,0.168,1,0z M50,39c-2.333,157.004-0.333,318.332-1,477
			c0,4,0,8,0,12c0.667,45.667-1.333,94,1,138c0.333,0,0.667,0,1,0c0.057,0.61,0.149,1.184,1,1c0.224,0.775,0.027,1.973,1,2
			c0.122,2.545,1.456,3.878,4,4c0.658,1.342,2.138,1.862,4,2c0.057,0.61,0.149,1.184,1,1c209.933,3.31,441.953,3.346,654,0
			c2.555-0.111,3.5-1.833,5-3c3.438-0.229,4.357-2.976,5-6c0.61-0.057,1.184-0.149,1-1c4.626-29.821,0.689-67.364,2-99
			c0-13.333,0-26.667,0-40c-0.667-162.329,1.333-327.335-1-488c-0.333,0-0.667,0-1,0c-0.057-0.61-0.149-1.184-1-1
			c-0.643-3.024-1.562-5.771-5-6c-1.5-1.167-2.445-2.888-5-3c-7.316-3.543-26.841-2-41-2c-204.544,0-416.292-1.651-613,2
			c-0.61,0.057-1.184,0.149-1,1c-1.862,0.138-3.342,0.658-4,2c-2.544,0.122-3.878,1.456-4,4c-0.779,0.221-1.163,0.837-1,2
			c-0.61,0.057-1.184,0.149-1,1C50.667,39,50.333,39,50,39z"/>
		<path fill-rule="evenodd" clip-rule="evenodd" fill="#454545" d="M51,516c0-158.999,0-318.002,0-477c-0.184-0.851,0.39-0.943,1-1
			c0,159.337,0,318.665,0,478C51.667,516,51.333,516,51,516z"/>
		<path fill-rule="evenodd" clip-rule="evenodd" fill="#454545" d="M727,527c-2.333-160.996-0.333-326.335-1-489
			c0.851-0.184,0.943,0.39,1,1c0,54,0,108,0,162c0,15.667,0,31.333,0,47c0,17,0,34,0,51C727,375,727,451,727,527z"/>
		<path fill-rule="evenodd" clip-rule="evenodd" fill="#989898" d="M50,516c0-158.998,0-318.001,0-477c0.333,0,0.667,0,1,0
			c0,158.998,0,318.001,0,477C50.667,516,50.333,516,50,516z"/>
		<path fill-rule="evenodd" clip-rule="evenodd" fill="#989898" d="M727,201c0-54,0-108,0-162c0.333,0,0.667,0,1,0c0,54,0,108,0,162
			C727.667,201,727.333,201,727,201z"/>
		<path fill-rule="evenodd" clip-rule="evenodd" fill="#878787" d="M714,522c-0.973-0.027-0.776-1.225-1-2
			c0-124.667,0-249.332,0-374c0.333,0,0.667,0,1,0C714,271.333,714,396.667,714,522z"/>
		<path fill-rule="evenodd" clip-rule="evenodd" fill="#DEDEDE" d="M699,522c3.92-1.08,12.315,2.315,13-2c0.333,0,0.667,0,1,0
			c0.224,0.775,0.027,1.973,1,2c0,0.333,0,0.667,0,1c-2.667,0-5.333,0-8,0c-2,0-4,0-6,0c-0.333,0-0.667,0-1,0
			C699,522.667,699,522.333,699,522z"/>
		<path fill-rule="evenodd" clip-rule="evenodd" fill="#DEDEDE" d="M49,528c0-4,0-8,0-12c0.333,0,0.667,0,1,0c0,4,0,8,0,12
			C49.667,528,49.333,528,49,528z"/>
		<path fill-rule="evenodd" clip-rule="evenodd" fill="#7E7E7E" d="M50,528c0-4,0-8,0-12c0.333,0,0.667,0,1,0c0,4,0,8,0,12
			C50.667,528,50.333,528,50,528z"/>
		<path fill-rule="evenodd" clip-rule="evenodd" fill="#3A3A3A" d="M51,528c0-4,0-8,0-12c0.333,0,0.667,0,1,0c0,4,0,8,0,12
			C51.667,528,51.333,528,51,528z"/>
		<path fill-rule="evenodd" clip-rule="evenodd" fill="#878787" d="M64,524c0-125.999,0-252.002,0-378c0.333,0,0.667,0,1,0
			c0,125.667,0,251.332,0,377c0,0.333,0,0.667,0,1C64.667,524,64.333,524,64,524z"/>
		<path fill-rule="evenodd" clip-rule="evenodd" fill="#989898" d="M66,523c206.667,0,413.334,0,620,0c0,0.333,0,0.667,0,1
			c-155,0-310.001,0-465,0c-0.667,0-1.333,0-2,0c-51.333,0-102.667,0-154,0c0-0.333,0-0.667,0-1C65.333,523,65.667,523,66,523z"/>
		<path fill-rule="evenodd" clip-rule="evenodd" fill="#878787" d="M699,523c0.333,0,0.667,0,1,0c0,0.333,0,0.667,0,1
			c-0.333,0-0.667,0-1,0c-4.333,0-8.667,0-13,0c0-0.333,0-0.667,0-1C690.333,523,694.667,523,699,523z"/>
		<path fill-rule="evenodd" clip-rule="evenodd" fill="#7E7E7E" d="M706,523c2.667,0,5.333,0,8,0c-0.744,2.255-5.609,0.391-8,1
			C706,523.667,706,523.333,706,523z"/>
		<path fill-rule="evenodd" clip-rule="evenodd" fill="#454545" d="M65,524c51.333,0,102.667,0,154,0
			c-49.667,2.333-103.667,0.334-155,1c0-0.333,0-0.667,0-1C64.333,524,64.667,524,65,524z"/>
		<path fill-rule="evenodd" clip-rule="evenodd" fill="#696969" d="M727,553c0-5,0-10,0-15c0.333,0,0.667,0,1,0c0,5,0,10,0,15
			C727.667,553,727.333,553,727,553z"/>
		<path fill-rule="evenodd" clip-rule="evenodd" fill="#5A5A5A" d="M86,580c1.177,0.156,2.838-0.172,3,1c-1.333,0-2.667,0-4,0
			C84.816,580.149,85.39,580.057,86,580z"/>
		<path fill-rule="evenodd" clip-rule="evenodd" fill="#B6B6B6" d="M86,580c1.394-2.904,4.935,0.283,6,1c0,0.333,0,0.667,0,1
			c-1.376,0.043-2.196-0.471-3-1C88.838,579.828,87.177,580.156,86,580z"/>
		<path fill-rule="evenodd" clip-rule="evenodd" fill="#333333" d="M678,588c0.306-1.212-2.889-3.448-3-1
			c-0.851-0.184-0.943,0.39-1,1c-0.027,0.973-1.225,0.776-2,1c-2.007,0.34-3.129-0.204-3-2c1.402-1.598,3.445-2.555,6-3
			c3.443-0.776,4.776,0.557,4,4C678.667,588,678.333,588,678,588z"/>
		<path fill-rule="evenodd" clip-rule="evenodd" fill="#5A5A5A" d="M663,590c-0.147,2.187-2.52,2.147-5,2
			C658.848,590.514,661.22,590.553,663,590z"/>
		<path fill-rule="evenodd" clip-rule="evenodd" fill="#878787" d="M669,591c-1.778,2.222-4.463,3.537-8,4
			c0.91-1.757,3.504-1.829,5-3C667.278,591.945,667.385,590.718,669,591z"/>
		<path fill-rule="evenodd" clip-rule="evenodd" fill="#B6B6B6" d="M661,595c3.537-0.463,6.222-1.778,8-4
			c1.278-0.055,1.385-1.282,3-1c1.891,0.225,2.206-1.127,4-1c0,8,0,16,0,24c-5.667,0-11.333,0-17,0c-0.362-5.39,0.514-14.782,0-17
			c0-0.333,0-0.667,0-1C659.667,595,660.333,595,661,595z"/>
		<path fill-rule="evenodd" clip-rule="evenodd" fill="#989898" d="M659,596c0.514,2.218-0.362,11.61,0,17c-0.333,0-0.667,0-1,0
			c0-5.333,0-10.667,0-16C658.057,596.39,658.149,595.816,659,596z"/>
		<path fill-rule="evenodd" clip-rule="evenodd" fill="#5A5A5A" d="M638,606c0.85-1.483,2.517-2.15,5-2
			C642.15,605.483,640.483,606.15,638,606z"/>
		<path fill-rule="evenodd" clip-rule="evenodd" fill="#7E7E7E" d="M629,611c2.634-2.033,5.896-3.438,9-5c2.483,0.15,4.15-0.517,5-2
			c0.057-0.61,0.149-1.184,1-1c5.07,0.07,6.463-3.537,11-4c-0.645,4.355,1.305,11.305-1,14C646.675,611.854,629.779,615.409,629,611
			z"/>
		<path fill-rule="evenodd" clip-rule="evenodd" fill="#7E7E7E" d="M615,614c0.691-1.975,2.667-2.666,5-3c0.333,0,0.667,0,1,0
			c-0.91,1.757-3.504,1.829-5,3C615.667,614,615.333,614,615,614z"/>
		<path fill-rule="evenodd" clip-rule="evenodd" fill="#333333" d="M626,612c-2.767-0.17-3.434,1.536-2,3c0,0.333,0,0.667,0,1
			c-2.816-0.533-11.191,1.485-8-2c1.496-1.171,4.09-1.243,5-3c-0.333,0-0.667,0-1,0c0.027-0.973,1.225-0.776,2-1
			c2.319-0.319,3.839,0.161,5,1C627.184,611.851,626.61,611.943,626,612z"/>
		<path fill-rule="evenodd" clip-rule="evenodd" fill="#7E7E7E" d="M676,614c0-0.333,0-0.667,0-1c0-8,0-16,0-24
			c-0.221-0.779-0.838-1.163-2-1c0.057-0.61,0.149-1.184,1-1C678.91,591.768,677.063,607.589,676,614z"/>
		<path fill-rule="evenodd" clip-rule="evenodd" fill="#5A5A5A" d="M138,615c2.168-0.168,0.453,3.547,1,5
			c-0.294,2.039-2.706,1.961-3,4c-0.333,0-0.667,0-1,0c0.013-1.987,2.729-1.271,2-4C139.168,620.169,137.453,616.453,138,615z"/>
		<path fill-rule="evenodd" clip-rule="evenodd" fill="#696969" d="M652,634c0,1,0,2,0,3c-1.48-0.186-0.917-2.417-1-4
			c0.333,0,0.667,0,1,0C652,633.333,652,633.667,652,634z"/>
		<path fill-rule="evenodd" clip-rule="evenodd" fill="#5A5A5A" d="M96,600c-4.603,7.73-0.714,23.953-2,35c0.667,0,1.333,0,2,0
			c0,0.333,0,0.667,0,1c-4.764,3.009-3-9.889-3-19c0-7.249-2.071-18.056,3-18C96,599.333,96,599.667,96,600z"/>
		<path fill-rule="evenodd" clip-rule="evenodd" fill="#7E7E7E" d="M112,640c-0.437,1.23-1.28,2.054-3,2
			C109.41,640.743,110.29,639.956,112,640z"/>
		<path fill-rule="evenodd" clip-rule="evenodd" fill="#7E7E7E" d="M668,648c0-3,0-6,0-9c-0.184-0.851,0.39-0.943,1-1
			c0,0.333,0,0.667,0,1c0,2.333,0,4.667,0,7C669.163,647.163,668.779,647.779,668,648z"/>
		<path fill-rule="evenodd" clip-rule="evenodd" fill="#454545" d="M667,648c0.619-2.714-1.27-7.937,1-9c0,3,0,6,0,9
			C667.667,648,667.333,648,667,648z"/>
		<path fill-rule="evenodd" clip-rule="evenodd" fill="#5A5A5A" d="M663,639c0.858,3.142-2.338,10.338,3,9c0.333,0,0.667,0,1,0
			s0.667,0,1,0c0.184,0.851-0.39,0.943-1,1c-1.333,0-2.667,0-4,0c-0.973-0.027-0.776-1.224-1-2c0-2.667,0-5.333,0-8
			C662.333,639,662.667,639,663,639z"/>
		<path fill-rule="evenodd" clip-rule="evenodd" fill="#454545" d="M85,654c2,0,4,0,6,0c0.184,0.851-0.39,0.943-1,1
			c-1.333,0-2.667,0-4,0C85.149,655.184,85.057,654.61,85,654z"/>
		<path fill-rule="evenodd" clip-rule="evenodd" fill="#878787" d="M728,567c-0.666,32,1.333,66.666-1,97c0-32.667,0-65.333,0-98
			c0.333,0,0.667,0,1,0C728,566.333,728,566.667,728,567z"/>
		<path fill-rule="evenodd" clip-rule="evenodd" fill="#989898" d="M50,666c0-46,0-92,0-138c0.333,0,0.667,0,1,0c0,46,0,92,0,138
			C50.667,666,50.333,666,50,666z"/>
		<path fill-rule="evenodd" clip-rule="evenodd" fill="#989898" d="M66,665c215.336,0,430.666,0,646,0c-0.057,0.61-0.149,1.184-1,1
			c-214.671,0-429.327,0-644,0C66.39,665.943,65.816,665.851,66,665z"/>
		<path fill-rule="evenodd" clip-rule="evenodd" fill="#EEEEEE" d="M727,666c0-0.667,0-1.333,0-2c2.333-30.334,0.334-65,1-97
			c0.333,0,0.667,0,1,0C727.689,598.636,731.626,636.179,727,666z"/>
		<path fill-rule="evenodd" clip-rule="evenodd" fill="#454545" d="M52,667c-0.851,0.184-0.943-0.39-1-1c0-46,0-92,0-138
			c0.333,0,0.667,0,1,0C52,574.333,52,620.667,52,667z"/>
		<path fill-rule="evenodd" clip-rule="evenodd" fill="#454545" d="M726,667c0.666-33.334-1.333-69.333,1-101
			c0,32.667,0,65.333,0,98c0,0.667,0,1.333,0,2C727.184,666.851,726.61,666.943,726,667z"/>
		<path fill-rule="evenodd" clip-rule="evenodd" fill="#696969" d="M63,676c43,0,86,0,129,0c0.667,0,1.333,0,2,0
			c8.333,0,16.667,0,25,0c0.667,0,1.333,0,2,0c22.333,0,44.667,0,67,0c1,0,2,0,3,0c132.001,0,263.999,0,396,0c1,0,2,0,3,0
			c0,0.333,0,0.667,0,1C481.336,676.333,269.998,678.333,63,676z"/>
		<path fill-rule="evenodd" clip-rule="evenodd" fill="#5A5A5A" d="M690,676c8.333,0,16.667,0,25,0c-6.343,2.323-16.992,0.341-25,1
			C690,676.667,690,676.333,690,676z"/>
		<path fill-rule="evenodd" clip-rule="evenodd" fill="#333333" d="M677,615c-0.003-1.003,0.811-1.19,1-2c0.333,0,0.667,0,1,0
			c0,1,0,2,0,3c-0.667,0-1.333,0-2,0C677,615.667,677,615.333,677,615z"/>
		<path fill-rule="evenodd" clip-rule="evenodd" fill="#323232" d="M659,614c3.687,2.313,11.651,0.349,17,1c0.333,0,0.667,0,1,0
			c0,0.333,0,0.667,0,1c-17.667,0-35.333,0-53,0c0-0.333,0-0.667,0-1c10.338-0.662,23.327,1.327,32-1c0.667,0,1.333,0,2,0
			C658.333,614,658.667,614,659,614z"/>
		<path fill-rule="evenodd" clip-rule="evenodd" fill="#CCCCCC" d="M66,40c0,160.996,0,322.003,0,483c-0.333,0-0.667,0-1,0
			c0-125.668,0-251.333,0-377c0-34.667,0-69.333,0-104C64.837,40.837,65.221,40.221,66,40z"/>
		<path fill-rule="evenodd" clip-rule="evenodd" fill="#CCCCCC" d="M713,42c0,34.667,0,69.333,0,104c0,124.668,0,249.333,0,374
			c-0.333,0-0.667,0-1,0c0-0.333,0-0.667,0-1c0-159.672,0-319.331,0-479C712.973,40.027,712.776,41.224,713,42z"/>
		<path fill-rule="evenodd" clip-rule="evenodd" fill="#878787" d="M65,567c0,32.667,0,65.333,0,98c-0.779-0.221-1.163-0.837-1-2
			c0-32.333,0-64.667,0-97c0.333,0,0.667,0,1,0C65,566.333,65,566.667,65,567z"/>
		<path fill-rule="evenodd" clip-rule="evenodd" fill="#878787" d="M714,566c0,32.333,0,64.667,0,97c-0.224,0.775-0.027,1.973-1,2
			c0-32.667,0-65.333,0-98c0-0.333,0-0.667,0-1C713.333,566,713.667,566,714,566z"/>
		<path fill-rule="evenodd" clip-rule="evenodd" fill="#878787" d="M659,613c5.667,0,11.333,0,17,0c0,0.333,0,0.667,0,1
			c-5.667,0-11.333,0-17,0c-0.333,0-0.667,0-1,0c0-0.333,0-0.667,0-1C658.333,613,658.667,613,659,613z"/>
		<path fill-rule="evenodd" clip-rule="evenodd" fill="#7E7E7E" d="M614,617c22,0,44,0,66,0c0,0.333,0,0.667,0,1
			c-0.333,0-0.667,0-1,0c-21,0-42,0-63,0c-0.667,0-1.333,0-2,0C614,617.667,614,617.333,614,617z"/>
		<path fill-rule="evenodd" clip-rule="evenodd" fill="#DEDEDE" d="M62,29c196.708-3.651,408.456-2,613-2
			c14.159,0,33.684-1.543,41,2c-0.334,0-0.667,0-1,0c-6.343-2.324-16.992-0.341-25-1c-208.664,0.667-420.002-1.333-627,1
			C62.667,29,62.333,29,62,29z"/>
		<path fill-rule="evenodd" clip-rule="evenodd" fill="#DEDEDE" d="M63,676c206.998,2.333,418.336,0.333,627,1
			c8.008-0.659,18.657,1.323,25-1c0.333,0,0.667,0,1,0c-212.047,3.346-444.067,3.31-654,0C62.333,676,62.667,676,63,676z"/>
		<path fill-rule="evenodd" clip-rule="evenodd" fill="#333333" d="M138,615c-0.547,1.453,1.168,5.169-1,5c0-2,0-4,0-6
			C137.61,614.057,138.184,614.149,138,615z"/>
		<path fill-rule="evenodd" clip-rule="evenodd" fill="#333333" d="M617,633c4.536,1.131,13.721-2.388,15,2
			c-1.241,3.786-13.149,2.147-16,1C616.156,634.823,615.828,633.161,617,633z"/>
		<path fill-rule="evenodd" clip-rule="evenodd" fill="#878787" d="M653,632c0.744-2.255,5.609-0.391,8-1c0.333,0,0.667,0,1,0
			c0,0.333,0,0.667,0,1c-0.333,0-0.667,0-1,0C658.333,632,655.667,632,653,632z"/>
		<path fill-rule="evenodd" clip-rule="evenodd" fill="#989898" d="M669,638c2.667,0,5.333,0,8,0c-0.431,2.236-4.929,0.405-7,1
			c-0.333,0-0.667,0-1,0C669,638.667,669,638.333,669,638z"/>
		<path fill-rule="evenodd" clip-rule="evenodd" fill="#3A3A3A" d="M63,29c43,0,86,0,129,0c-41.667,2.333-87.667,0.333-131,1
			c-0.184-0.851,0.39-0.943,1-1C62.333,29,62.667,29,63,29z"/>
		<path fill-rule="evenodd" clip-rule="evenodd" fill="#3A3A3A" d="M61,675c43.333,0.666,89.333-1.333,131,1c-43,0-86,0-129,0
			c-0.333,0-0.667,0-1,0C61.149,676.184,61.057,675.61,61,675z"/>
		<path fill-rule="evenodd" clip-rule="evenodd" fill="#5A5A5A" d="M728,528c0,3.333,0,6.667,0,10c-0.333,0-0.667,0-1,0c0-1,0-2,0-3
			c0-2.333,0-4.667,0-7C727.333,528,727.667,528,728,528z"/>
		<path fill-rule="evenodd" clip-rule="evenodd" fill="#5A5A5A" d="M728,553c0,4.333,0,8.667,0,13c-0.333,0-0.667,0-1,0
			c0-3.667,0-7.333,0-11c0-0.667,0-1.333,0-2C727.333,553,727.667,553,728,553z"/>
		<path fill-rule="evenodd" clip-rule="evenodd" fill="#696969" d="M64,565c216.665,0,433.338,0,650,0c0,0.333,0,0.667,0,1
			c-0.333,0-0.667,0-1,0c-216.003,0-431.992,0-648,0c-0.333,0-0.667,0-1,0C64,565.667,64,565.333,64,565z"/>
		<path fill-rule="evenodd" clip-rule="evenodd" fill="#5A5A5A" d="M83,585c0,22.333,0,44.667,0,67c-0.851,0.184-0.943-0.39-1-1
			c0-22,0-44,0-66C82.333,585,82.667,585,83,585z"/>
		<path fill-rule="evenodd" clip-rule="evenodd" fill="#989898" d="M67,39c214.671,0,429.327,0,644,0c2.182-0.182,3.182,0.818,3,3
			c-0.333,0-0.667,0-1,0c-0.224-0.776-0.027-1.973-1-2c-215.336,0-430.666,0-646,0c-0.779,0.221-1.163,0.837-1,2
			c-0.333,0-0.667,0-1,0C63.818,39.818,64.818,38.818,67,39z"/>
	</g>
</g>
</svg>
